<svg xmlns="http://www.w3.org/2000/svg" viewBox="0 0 96 96" width="96" height="96">
  <rect width="96" height="96" rx="22" fill="#F8E2E4"/>
  <g transform="rotate(-12 38 52)">
    <rect x="20" y="26" width="34" height="48" rx="6" fill="#FFFFFF" stroke="#4A3A3C" stroke-width="2.5"/>
    <path d="M37 41c-3 5-9 8-9 13a4.5 4.5 0 0 0 8 2.6L34.5 62h5L38 56.6a4.5 4.5 0 0 0 8-2.6c0-5-6-8-9-13z" fill="#4A3A3C"/>
  </g>
  <g transform="rotate(10 58 50)">
    <rect x="42" y="24" width="34" height="48" rx="6" fill="#FFFFFF" stroke="#C9545F" stroke-width="2.5"/>
    <path d="M59 60c-1-1-10-7-10-13a5 5 0 0 1 10-2 5 5 0 0 1 10 2c0 6-9 12-10 13z" fill="#C9545F"/>
  </g>
</svg>
